<?xml version="1.0" encoding="utf-8"?>
<!-- Generator: Adobe Illustrator 19.1.0, SVG Export Plug-In . SVG Version: 6.00 Build 0)  -->
<svg version="1.1" id="Layer_1" xmlns="http://www.w3.org/2000/svg" xmlns:xlink="http://www.w3.org/1999/xlink" x="0px" y="0px"
	 viewBox="-255 347 100 100" style="enable-background:new -255 347 100 100;" xml:space="preserve">
<g>
	<path d="M-205.1,381.1c1.8,0,3.2-0.5,4.3-1.4c1.1-1,1.7-2.3,1.7-3.9c0-1.6-0.6-2.9-1.7-3.9c-1.1-0.9-2.5-1.4-4.3-1.4
		c-1.7,0-3.1,0.5-4.2,1.4c-1.2,1-1.8,2.3-1.8,3.9c0,1.6,0.6,2.9,1.8,3.9C-208.2,380.6-206.8,381.1-205.1,381.1z"/>
	<polygon points="-200.4,418.1 -200.4,385.8 -214.6,385.8 -214.6,391.2 -209.6,391.2 -209.6,418.1 -214.6,418.1 -214.6,423.5 
		-195.4,423.5 -195.4,418.1 	"/>
</g>
<path d="M-205,357c22.1,0,40,17.9,40,40s-17.9,40-40,40s-40-17.9-40-40S-227.1,357-205,357 M-205,352c-24.9,0-45,20.1-45,45
	s20.1,45,45,45s45-20.1,45-45S-180.1,352-205,352L-205,352z"/>
</svg>
