<?xml version="1.0" encoding="utf-8"?>
<!-- Generator: Adobe Illustrator 19.1.0, SVG Export Plug-In . SVG Version: 6.00 Build 0)  -->
<svg version="1.1" id="Layer_1" xmlns="http://www.w3.org/2000/svg" xmlns:xlink="http://www.w3.org/1999/xlink" x="0px" y="0px"
	 viewBox="-49 141 512 512" style="enable-background:new -49 141 512 512;" xml:space="preserve">
<path id="gear-5-icon" d="M413,424.7v-55.5l-49.2-17.5c-3.4-11.8-8.1-23-13.9-33.6l22.4-47.2L333,231.7l-47.2,22.4
	c-10.5-5.8-21.8-10.5-33.6-13.9L234.7,191h-55.5l-17.5,49.2c-11.8,3.4-23,8.1-33.6,13.9L81,231.7L41.7,271l22.5,47.2
	c-5.8,10.5-10.5,21.8-13.9,33.6L1,369.3v55.5l49.2,17.5c3.4,11.8,8.1,23,13.9,33.6L41.7,523L81,562.3l47.2-22.4
	c10.5,5.8,21.8,10.5,33.6,13.9l17.5,49.2h55.5l17.5-49.2c11.8-3.4,23-8.1,33.6-13.9l47.2,22.4l39.2-39.2l-22.4-47.2
	c5.8-10.5,10.5-21.8,13.9-33.6L413,424.7z M207,472.5c-41.7,0-75.5-33.8-75.5-75.5s33.8-75.5,75.5-75.5c41.7,0,75.5,33.8,75.5,75.5
	S248.7,472.5,207,472.5z"/>
</svg>
