<?xml version="1.0" encoding="utf-8"?>
<!-- Generator: Adobe Illustrator 19.1.0, SVG Export Plug-In . SVG Version: 6.00 Build 0)  -->
<svg version="1.1" id="Layer_1" xmlns="http://www.w3.org/2000/svg" xmlns:xlink="http://www.w3.org/1999/xlink" x="0px" y="0px"
	 viewBox="-49 141 512 512" style="enable-background:new -49 141 512 512;" xml:space="preserve">
<style type="text/css">
	.st0{fill:#FFFFFF;}
</style>
<desc  version="4.5" showGrid="no" snapToGrid="no" iVinci="yes" gridStep="20" codePlatform="0"></desc>
<g id="Layer1">
	<g id="Shape1">
		
			<desc  type="0" transform="matrix(6.35346,0,0,6.35346,256,116.278)" basicInfo-starPoints="5" basicInfo-polygonSides="6" basicInfo-roundedRectRadius="12" basicInfo-basicType="0" font-alignment="1" font-familyName="" blurEnabled="0" locked="0" flag="" mesh="" strokeStyle="0" shadowOpacity="160" shadowBlur="4" shadowOffsetY="2" bounding="rect(-36.653,-7.3305,73.306,14.661)" font-underline="0" blurRadius="4" shadowEnabled="0" pers-start="0,0" pers-end="0,0" font-pixelSize="20" text="" shapeID="1" font-bold="0" shadowOffsetX="0" pers-size="0,0" pers-center="0,0" markerStart="0" markerEnd="0">
			</desc>
		<path id="shapePath1" class="st0" d="M439.9,293.5c0,5.7-4.6,10.3-10.4,10.3h-445c-5.7,0-10.3-4.6-10.3-10.3v-72.4
			c0-5.7,4.6-10.3,10.3-10.3h445c5.7,0,10.4,4.6,10.4,10.3V293.5z"/>
	</g>
	<g id="Shape2">
		
			<desc  type="0" transform="matrix(6.35346,0,0,6.35346,256,256)" basicInfo-starPoints="5" basicInfo-polygonSides="6" basicInfo-roundedRectRadius="12" basicInfo-basicType="0" font-alignment="1" font-familyName="" blurEnabled="0" locked="0" flag="" mesh="" strokeStyle="0" shadowOpacity="160" shadowBlur="4" shadowOffsetY="2" bounding="rect(-36.653,-7.331,73.306,14.662)" font-underline="0" blurRadius="4" shadowEnabled="0" pers-start="0,0" pers-end="0,0" font-pixelSize="20" text="" shapeID="2" font-bold="0" shadowOffsetX="0" pers-size="0,0" pers-center="0,0" markerStart="0" markerEnd="0">
			</desc>
		<path id="shapePath2" class="st0" d="M439.9,433.2c0,5.7-4.6,10.4-10.4,10.4h-445c-5.7,0-10.3-4.6-10.3-10.4v-72.5
			c0-5.7,4.6-10.3,10.3-10.3h445c5.7,0,10.4,4.6,10.4,10.3V433.2z"/>
	</g>
	<g id="Shape3">
		
			<desc  type="0" transform="matrix(6.35346,0,0,6.35346,256,395.722)" basicInfo-starPoints="5" basicInfo-polygonSides="6" basicInfo-roundedRectRadius="12" basicInfo-basicType="0" font-alignment="1" font-familyName="" blurEnabled="0" locked="0" flag="" mesh="" strokeStyle="0" shadowOpacity="160" shadowBlur="4" shadowOffsetY="2" bounding="rect(-36.653,-7.3305,73.306,14.661)" font-underline="0" blurRadius="4" shadowEnabled="0" pers-start="0,0" pers-end="0,0" font-pixelSize="20" text="" shapeID="3" font-bold="0" shadowOffsetX="0" pers-size="0,0" pers-center="0,0" markerStart="0" markerEnd="0">
			</desc>
		<path id="shapePath3" class="st0" d="M439.9,572.9c0,5.7-4.6,10.3-10.4,10.3h-445c-5.7,0-10.3-4.6-10.3-10.3v-72.4
			c0-5.7,4.6-10.3,10.3-10.3h445c5.7,0,10.4,4.6,10.4,10.3V572.9z"/>
	</g>
</g>
</svg>
